<?xml version="1.0" encoding="utf-8"?>
<!-- Generator: Adobe Illustrator 19.1.0, SVG Export Plug-In . SVG Version: 6.00 Build 0)  -->
<svg version="1.1" xmlns="http://www.w3.org/2000/svg" xmlns:xlink="http://www.w3.org/1999/xlink" x="0px" y="0px"
	 viewBox="0 0 100 100" style="enable-background:new 0 0 100 100;" xml:space="preserve">
<style type="text/css">
	.st0{fill:#95A5A6;}
	.st1{fill:#0075A8;}
	.st2{fill:#0EB7ED;}
	.st3{fill:#D3EDF1;}
	.st4{fill:none;stroke:#000000;stroke-width:0.5;stroke-miterlimit:10;}
	.st5{fill:#394D54;}
	.st6{fill:#39B7E1;}
	.st7{fill:#FFFFFF;}
	.st8{fill:#336EE5;}
	.st9{fill:none;stroke:#FFFFFF;stroke-width:0.2744;}
	.st10{fill:#373535;}
	.st11{fill:#0074AA;}
	.st12{fill:#00C8FA;}
	.st13{fill:#00A9D2;}
	.st14{fill:#326CE5;}
	.st15{fill:#FFFFFF;stroke:#FFFFFF;stroke-width:0.25;}
	.st16{opacity:0.5;fill:#0EB7ED;}
</style>
<g id="Layer_1">
	<g id="layer1">
		<g id="g3052">
			<path id="path3055" class="st14" d="M51,10c-0.6,0-1.2,0.2-1.7,0.4L25.8,21.7c-1.2,0.6-2.1,1.7-2.4,3l-5.8,25.2
				c-0.3,1.2-0.1,2.4,0.6,3.4c0.1,0.1,0.2,0.2,0.3,0.4l16.3,20.2c0.9,1.1,2.1,1.7,3.5,1.7l26.1,0c1.4,0,2.7-0.6,3.5-1.7l16.3-20.2
				c0.9-1.1,1.2-2.5,0.9-3.8l-5.8-25.2c-0.3-1.3-1.2-2.4-2.4-3L53.2,10.4C52.5,10.1,51.8,10,51,10z"/>
			<path id="path3059" class="st15" d="M51.2,18.6c-0.8,0-1.4,0.7-1.4,1.6c0,0,0,0,0,0c0,0.1,0,0.3,0,0.4c0,0.5,0.1,0.9,0.2,1.3
				c0.1,1,0.2,1.8,0.2,2.6c-0.1,0.3-0.3,0.5-0.5,0.7l0,0.6c-0.8,0.1-1.7,0.2-2.5,0.4c-3.7,0.8-6.8,2.7-9.2,5.3
				c-0.2-0.1-0.4-0.3-0.5-0.4c-0.3,0-0.5,0.1-0.8-0.1c-0.6-0.4-1.2-1-1.9-1.7c-0.3-0.3-0.5-0.7-0.9-1c-0.1-0.1-0.2-0.2-0.3-0.2
				c-0.3-0.2-0.6-0.4-1-0.4c-0.4,0-0.8,0.2-1.1,0.5c-0.5,0.6-0.3,1.5,0.3,2.1c0,0,0,0,0,0c0.1,0.1,0.2,0.2,0.3,0.2
				c0.4,0.3,0.8,0.4,1.2,0.7c0.8,0.5,1.5,1,2.1,1.5c0.2,0.2,0.3,0.6,0.3,0.8l0.5,0.4c-2.4,3.6-3.5,8.1-2.9,12.7l-0.6,0.2
				c-0.2,0.2-0.4,0.5-0.6,0.6c-0.7,0.2-1.5,0.3-2.5,0.4c-0.5,0-0.9,0-1.4,0.1c-0.1,0-0.3,0.1-0.4,0.1c0,0,0,0,0,0c0,0,0,0,0,0
				c-0.8,0.2-1.4,1-1.2,1.7c0.2,0.8,1,1.2,1.8,1c0,0,0,0,0,0c0,0,0,0,0,0c0.1,0,0.3-0.1,0.4-0.1c0.5-0.1,0.8-0.3,1.3-0.5
				c0.9-0.3,1.7-0.6,2.5-0.7c0.3,0,0.6,0.2,0.8,0.3l0.6-0.1c1.4,4.4,4.4,7.9,8.1,10.1l-0.3,0.6c0.1,0.2,0.2,0.6,0.1,0.8
				c-0.3,0.7-0.7,1.5-1.3,2.3c-0.3,0.4-0.5,0.7-0.8,1.1c-0.1,0.1-0.1,0.3-0.2,0.4c-0.4,0.8-0.1,1.7,0.6,2c0.7,0.3,1.6,0,1.9-0.8
				c0,0,0,0,0,0c0,0,0,0,0,0c0.1-0.1,0.1-0.3,0.2-0.4c0.2-0.5,0.3-0.8,0.4-1.3c0.4-0.9,0.6-1.9,1.1-2.5c0.1-0.2,0.4-0.2,0.6-0.3
				l0.3-0.6c3.3,1.3,6.9,1.6,10.6,0.8c0.8-0.2,1.6-0.4,2.4-0.7c0.1,0.2,0.3,0.5,0.3,0.5c0.2,0.1,0.5,0.1,0.7,0.4
				c0.4,0.7,0.6,1.4,1,2.4c0.1,0.4,0.2,0.8,0.4,1.3c0,0.1,0.1,0.3,0.2,0.4c0.4,0.8,1.2,1.1,1.9,0.8c0.7-0.3,1-1.2,0.6-2
				c-0.1-0.1-0.1-0.3-0.2-0.4c-0.2-0.4-0.5-0.7-0.8-1.1c-0.5-0.8-1-1.5-1.2-2.2c-0.1-0.4,0-0.6,0.1-0.8c-0.1-0.1-0.2-0.4-0.2-0.6
				c3.9-2.3,6.8-6,8.1-10.2c0.2,0,0.5,0.1,0.6,0.1c0.2-0.1,0.4-0.3,0.8-0.3c0.8,0.1,1.5,0.4,2.5,0.7c0.4,0.2,0.8,0.4,1.3,0.5
				c0.1,0,0.2,0.1,0.4,0.1c0,0,0,0,0,0c0,0,0,0,0,0c0.8,0.2,1.6-0.3,1.8-1c0.2-0.8-0.4-1.5-1.2-1.7c-0.1,0-0.3-0.1-0.4-0.1
				c-0.5-0.1-0.9-0.1-1.4-0.1c-1-0.1-1.8-0.2-2.5-0.4c-0.3-0.1-0.5-0.5-0.6-0.6l-0.6-0.2c0.3-2.1,0.2-4.4-0.3-6.6
				c-0.5-2.2-1.4-4.3-2.6-6.1c0.1-0.1,0.4-0.4,0.5-0.4c0-0.3,0-0.5,0.3-0.8c0.6-0.5,1.3-1,2.1-1.5c0.4-0.2,0.8-0.4,1.2-0.7
				c0.1-0.1,0.2-0.2,0.3-0.2c0.7-0.5,0.8-1.5,0.3-2.1S69.7,27.5,69,28c-0.1,0.1-0.2,0.2-0.3,0.2c-0.4,0.3-0.6,0.6-0.9,1
				c-0.7,0.7-1.3,1.3-1.9,1.7c-0.3,0.2-0.7,0.1-0.9,0.1l-0.5,0.4c-3.1-3.2-7.2-5.2-11.7-5.6c0-0.2,0-0.5,0-0.6
				c-0.2-0.2-0.4-0.3-0.5-0.7c-0.1-0.8,0-1.6,0.2-2.6c0.1-0.5,0.2-0.8,0.2-1.3c0-0.1,0-0.3,0-0.4C52.6,19.3,52,18.6,51.2,18.6
				L51.2,18.6z M49.5,29.5l-0.4,7.4l0,0c0,0.7-0.6,1.2-1.2,1.2c-0.3,0-0.5-0.1-0.7-0.2l0,0L41,33.6c1.9-1.8,4.2-3.2,7-3.8
				C48.5,29.7,49,29.6,49.5,29.5z M53,29.5c3.2,0.4,6.2,1.8,8.4,4.1l-6,4.3l0,0c-0.5,0.4-1.3,0.3-1.7-0.2c-0.2-0.2-0.3-0.5-0.3-0.7
				l0,0L53,29.5z M38.8,36.3l5.5,4.9l0,0c0.5,0.4,0.6,1.2,0.2,1.7c-0.2,0.2-0.4,0.4-0.6,0.4l0,0l-7.1,2C36.4,42.2,37.2,39,38.8,36.3
				z M63.6,36.3c0.8,1.3,1.4,2.8,1.8,4.4c0.4,1.6,0.5,3.2,0.3,4.7l-7.1-2.1l0,0c-0.6-0.2-1-0.8-0.9-1.5c0.1-0.3,0.2-0.5,0.4-0.7l0,0
				L63.6,36.3L63.6,36.3z M50.1,41.7h2.3l1.4,1.8l-0.5,2.2l-2,1l-2-1l-0.5-2.2L50.1,41.7z M57.4,47.7c0.1,0,0.2,0,0.3,0l0,0l7.3,1.2
				c-1.1,3-3.1,5.6-5.9,7.4l-2.8-6.9l0,0c-0.3-0.6,0-1.3,0.6-1.6C57,47.7,57.2,47.7,57.4,47.7L57.4,47.7z M45,47.7
				c0.6,0,1.1,0.4,1.2,1c0.1,0.3,0,0.5-0.1,0.8l0,0l-2.8,6.8c-2.6-1.7-4.7-4.2-5.8-7.3l7.3-1.2l0,0C44.9,47.7,45,47.7,45,47.7
				L45,47.7z M51.2,50.7c0.2,0,0.4,0,0.6,0.1c0.2,0.1,0.4,0.3,0.6,0.5h0l3.6,6.5c-0.5,0.2-0.9,0.3-1.4,0.4c-2.7,0.6-5.5,0.4-7.9-0.4
				l3.6-6.5h0C50.4,50.9,50.8,50.7,51.2,50.7z"/>
		</g>
	</g>
</g>
</svg>
