<?xml version="1.0" encoding="utf-8"?>
<!-- Generator: Adobe Illustrator 16.0.0, SVG Export Plug-In . SVG Version: 6.00 Build 0)  -->
<!DOCTYPE svg PUBLIC "-//W3C//DTD SVG 1.1//EN" "http://www.w3.org/Graphics/SVG/1.1/DTD/svg11.dtd">
<svg version="1.1" id="Layer_1" xmlns="http://www.w3.org/2000/svg" xmlns:xlink="http://www.w3.org/1999/xlink" x="0px" y="0px"
	 width="1144.073px" height="290.325px" viewBox="0.656 -19.42 1144.073 290.325"
	 enable-background="new 0.656 -19.42 1144.073 290.325" xml:space="preserve">
<g>
	<path fill="#16233F" d="M190.18,157.431V94.065L135.537,125.8L190.18,157.431"/>
	<path fill="#00AEDE" d="M186.645,87.882l-54.738-31.651v63.378L186.645,87.882"/>
	<path fill="#00AEDE" d="M124.792,119.607V56.229L70.016,87.88L124.792,119.607"/>
	<path fill="#00AEDE" d="M121.252,50.148L66.527,18.313v63.472L121.252,50.148"/>
	<path fill="#16233F" d="M186.645,163.521l-54.738-31.624v63.368L186.645,163.521"/>
	<path fill="#16233F" d="M124.792,195.266v-63.371l-54.777,31.628L124.792,195.266"/>
	<path fill="#00AEDE" d="M252.113,125.799l-54.818-31.731v63.361L252.113,125.799"/>
	<path fill="#00AEDE" d="M59.399,81.785V18.313L4.263,50.148L59.399,81.785"/>
	<path fill="#16233F" d="M121.252,201.356l-54.725-31.721v63.451L121.252,201.356"/>
	<path fill="#00AEDE" d="M59.399,233.088v-63.45L4.263,201.358L59.399,233.088"/>
	<path fill="#16233F" d="M121.252,125.799L66.527,94.068v63.361L121.252,125.799"/>
	<path fill="#00AEDE" d="M190.18,81.785V18.313l-54.643,31.835L190.18,81.785"/>
	<path fill="#16233F" d="M131.908-19.42v63.357l54.738-31.72L131.908-19.42"/>
	<path fill="#16233F" d="M70.015,12.217l54.777,31.72V-19.42L70.015,12.217"/>
	<path fill="#16233F" d="M186.645,239.171l-54.738-31.616v63.348L186.645,239.171"/>
	<path fill="#16233F" d="M124.792,270.904v-63.352l-54.777,31.62L124.792,270.904"/>
	<path fill="#00AEDE" d="M255.66,195.266v-63.371l-54.676,31.628L255.66,195.266"/>
	<path fill="#00AEDE" d="M59.399,157.431V93.966L4.263,125.8L59.399,157.431"/>
	<path fill="#00AEDE" d="M55.872,163.521L0.656,131.896v63.368L55.872,163.521"/>
	<path fill="#00AEDE" d="M255.66,119.607V56.229L200.984,87.88L255.66,119.607"/>
	<path fill="#00AEDE" d="M252.113,50.148l-54.818-31.835v63.472L252.113,50.148"/>
	<path fill="#00AEDE" d="M252.113,201.356l-54.818-31.721v63.451L252.113,201.356"/>
	<path fill="#16233F" d="M190.18,233.088v-63.45l-54.643,31.721L190.18,233.088"/>
	<path fill="#00AEDE" d="M55.872,87.882L0.656,56.231v63.378L55.872,87.882"/>
</g>
<text transform="matrix(1 0 0 1 306.5 168.7393)" font-family="'LatoLatin-Medium'" font-size="130">Apache Mesos</text>
</svg>
